<svg width="373" height="64" viewBox="0 0 373 64" fill="none" xmlns="http://www.w3.org/2000/svg">
<path d="M0.48 0H9.056C11.504 0 12.496 1.136 12.496 3.28V4.48C12.496 6.64 11.504 7.824 9.056 7.824H2.432V10.848C2.432 11.088 2.32 11.2 2.08 11.2H0.352C0.112 11.2 0 11.088 0 10.848V0.48C0 0.16 0.16 0 0.48 0ZM2.432 5.616H8.56C9.648 5.616 10.048 5.184 10.048 4.24V3.632C10.048 2.672 9.648 2.24 8.56 2.24H2.64C2.496 2.24 2.432 2.304 2.432 2.432V5.616Z" fill="url(#paint0_linear_134_13)"/>
<path d="M14.5737 0H23.1497C25.5338 0 26.5898 1.072 26.5898 3.28V4.208C26.5898 6.064 25.8538 7.152 24.2698 7.472L26.9418 10.784C27.0698 10.944 26.9897 11.2 26.7338 11.2H24.5898C24.3337 11.2 24.2537 11.136 24.1418 10.992L21.5977 7.744H16.5257V10.848C16.5257 11.088 16.4137 11.2 16.1737 11.2H14.4458C14.2058 11.2 14.0938 11.088 14.0938 10.848V0.48C14.0938 0.16 14.2537 0 14.5737 0ZM16.5257 5.632H22.6538C23.7418 5.632 24.1418 5.248 24.1418 4.288V3.616C24.1418 2.64 23.7257 2.24 22.6538 2.24H16.7337C16.5897 2.24 16.5257 2.288 16.5257 2.416V5.632Z" fill="url(#paint1_linear_134_13)"/>
<path d="M32.6489 0H37.5769C40.8249 0 42.0569 1.152 42.0569 4.224V6.976C42.0569 10.048 40.8249 11.2 37.5769 11.2H32.6489C29.4009 11.2 28.1689 10.032 28.1689 6.976V4.224C28.1689 1.168 29.4009 0 32.6489 0ZM30.6009 4.4V6.8C30.6009 8.48 31.0649 8.944 32.7289 8.944H37.4809C39.1449 8.944 39.6089 8.48 39.6089 6.8V4.4C39.6089 2.72 39.1449 2.256 37.4809 2.256H32.7289C31.0649 2.256 30.6009 2.72 30.6009 4.4Z" fill="url(#paint2_linear_134_13)"/>
<path d="M52.3821 0H54.1101C54.3501 0 54.4781 0.112 54.4781 0.352V6.976C54.4781 10.032 53.2461 11.2 49.9981 11.2H43.7261C43.5021 11.2 43.3741 11.088 43.3741 10.848V9.28C43.3741 9.04 43.5021 8.928 43.7261 8.928H49.9021C51.5501 8.928 52.0301 8.432 52.0301 6.736V0.352C52.0301 0.112 52.1421 0 52.3821 0Z" fill="url(#paint3_linear_134_13)"/>
<path d="M60.9301 0H67.9701C68.1941 0 68.3221 0.112 68.3221 0.352V1.904C68.3221 2.128 68.1941 2.256 67.9701 2.256H60.9461C59.2981 2.256 58.8661 2.72 58.8661 4.4V4.48H67.8741C68.0981 4.48 68.2261 4.592 68.2261 4.832V6.256C68.2261 6.496 68.0981 6.608 67.8741 6.608H58.8661V6.8C58.8661 8.48 59.2981 8.944 60.9461 8.944H67.9701C68.1941 8.944 68.3221 9.072 68.3221 9.296V10.848C68.3221 11.088 68.1941 11.2 67.9701 11.2H60.9301C57.6821 11.2 56.4501 10.032 56.4501 6.976V4.224C56.4501 1.168 57.6821 0 60.9301 0Z" fill="url(#paint4_linear_134_13)"/>
<path d="M74.5239 0H81.7239C81.9639 0 82.0759 0.112 82.0759 0.352V1.92C82.0759 2.16 81.9639 2.272 81.7239 2.272H74.6039C72.9559 2.272 72.4759 2.768 72.4759 4.464V6.736C72.4759 8.432 72.9559 8.928 74.6039 8.928H81.7239C81.9639 8.928 82.0759 9.04 82.0759 9.28V10.848C82.0759 11.088 81.9639 11.2 81.7239 11.2H74.5239C71.2759 11.2 70.0439 10.048 70.0439 6.976V4.224C70.0439 1.152 71.2759 0 74.5239 0Z" fill="url(#paint5_linear_134_13)"/>
<path d="M83.4449 0H95.9569C96.1969 0 96.3249 0.112 96.3249 0.352V1.92C96.3249 2.16 96.1969 2.272 95.9569 2.272H90.9169V10.848C90.9169 11.088 90.8209 11.2 90.5809 11.2H88.8369C88.6129 11.2 88.4849 11.088 88.4849 10.848V2.272H83.4449C83.2209 2.272 83.0929 2.16 83.0929 1.92V0.352C83.0929 0.112 83.2209 0 83.4449 0Z" fill="url(#paint6_linear_134_13)"/>
<path d="M3.2 25.6H8.384C9.104 25.6 9.44 25.936 9.44 26.656V39.184H16.112C19.376 39.184 20.192 38.896 21.44 37.264L29.792 26.224C30.128 25.744 30.368 25.6 31.184 25.6H37.184C37.904 25.6 38.144 26.272 37.76 26.752L28.448 38.8C27.392 40.192 26.48 41.248 25.568 42.016C26.864 42.832 28.016 43.936 29.216 45.472L39.056 57.952C39.44 58.336 39.248 59.2 38.432 59.2H32.336C31.568 59.2 31.28 59.056 30.944 58.576L22.064 47.2C20.816 45.568 19.856 45.232 16.736 45.232H9.44V58.144C9.44 58.864 9.104 59.2 8.384 59.2H3.2C2.48 59.2 2.144 58.864 2.144 58.144V26.656C2.144 25.936 2.48 25.6 3.2 25.6Z" fill="url(#paint7_linear_134_13)"/>
<path d="M61.5448 25.6H64.3768C66.8728 25.6 68.3128 26.32 69.8968 29.248L85.7848 58.096C86.1208 58.768 85.9768 59.2 85.2088 59.2H79.1128C78.4888 59.2 78.2008 59.056 78.0088 58.624L74.8408 52.768H51.8488L48.7288 58.624C48.4888 59.056 48.2488 59.2 47.6248 59.2H41.3368C40.5687 59.2 40.4248 58.768 40.7607 58.096L56.5047 29.248C58.0407 26.32 59.5287 25.6 61.5448 25.6ZM55.2088 46.528H71.4327L63.9928 32.752C63.8488 32.512 63.6568 32.416 63.4168 32.416H63.1287C62.8887 32.416 62.7448 32.512 62.6007 32.752L55.2088 46.528Z" fill="url(#paint8_linear_134_13)"/>
<path d="M94.166 25.6H98.486C101.942 25.6 102.518 26.32 104.054 28.432L121.718 51.856C121.862 52.096 122.054 52.192 122.342 52.192H122.774C123.014 52.192 123.158 52.048 123.158 51.712V26.656C123.158 25.936 123.494 25.6 124.214 25.6H129.35C130.07 25.6 130.406 25.936 130.406 26.656V54.208C130.406 58 129.11 59.2 126.086 59.2H121.814C118.358 59.2 117.782 58.48 116.294 56.368L98.582 32.944C98.39 32.704 98.246 32.608 97.958 32.608H97.526C97.238 32.608 97.142 32.752 97.142 33.088V58.144C97.142 58.864 96.758 59.2 96.086 59.2H90.95C90.23 59.2 89.894 58.864 89.894 58.144V30.592C89.894 26.8 91.142 25.6 94.166 25.6Z" fill="url(#paint9_linear_134_13)"/>
<path d="M137.296 25.6H168.304C170.944 25.6 172.096 26.752 172.144 29.248V33.856C172.144 36.208 171.712 36.976 169.744 37.936L144.352 50.944C144.016 51.088 143.92 51.328 143.92 51.664V52.048C143.92 52.288 144.112 52.432 144.4 52.432H170.8C171.472 52.432 171.856 52.816 171.856 53.488V58.144C171.856 58.864 171.472 59.2 170.8 59.2H139.696C137.104 59.2 135.904 58.048 135.904 55.552V50.896C135.904 48.544 136.24 47.776 138.16 46.864L163.456 33.856C163.744 33.664 163.888 33.472 163.888 33.136V32.752C163.888 32.512 163.696 32.368 163.408 32.368H137.296C136.576 32.368 136.24 31.984 136.24 31.312V26.656C136.24 25.936 136.576 25.6 137.296 25.6Z" fill="url(#paint10_linear_134_13)"/>
<path d="M189.95 25.6H211.07C211.742 25.6 212.126 25.936 212.126 26.656V31.312C212.126 31.984 211.742 32.368 211.07 32.368H189.998C185.054 32.368 183.758 33.76 183.758 38.8V39.04H210.782C211.454 39.04 211.838 39.376 211.838 40.096V44.368C211.838 45.088 211.454 45.424 210.782 45.424H183.758V46C183.758 51.04 185.054 52.432 189.998 52.432H211.07C211.742 52.432 212.126 52.816 212.126 53.488V58.144C212.126 58.864 211.742 59.2 211.07 59.2H189.95C180.206 59.2 176.51 55.696 176.51 46.528V38.272C176.51 29.104 180.206 25.6 189.95 25.6Z" fill="url(#paint11_linear_134_13)"/>
<path d="M221.947 25.6H226.267C229.723 25.6 230.299 26.32 231.835 28.432L249.499 51.856C249.643 52.096 249.835 52.192 250.123 52.192H250.555C250.795 52.192 250.939 52.048 250.939 51.712V26.656C250.939 25.936 251.275 25.6 251.995 25.6H257.131C257.851 25.6 258.187 25.936 258.187 26.656V54.208C258.187 58 256.891 59.2 253.867 59.2H249.595C246.139 59.2 245.563 58.48 244.075 56.368L226.363 32.944C226.171 32.704 226.027 32.608 225.739 32.608H225.307C225.019 32.608 224.923 32.752 224.923 33.088V58.144C224.923 58.864 224.539 59.2 223.867 59.2H218.731C218.011 59.2 217.675 58.864 217.675 58.144V30.592C217.675 26.8 218.923 25.6 221.947 25.6Z" fill="url(#paint12_linear_134_13)"/>
<path d="M288.883 32.032H313.795V37.264H288.883V32.032ZM279.955 40.72H322.963V46.096H279.955V40.72ZM291.571 45.04H297.811C297.587 47.248 297.219 49.312 296.707 51.232C296.195 53.12 295.379 54.848 294.259 56.416C293.171 57.952 291.635 59.328 289.651 60.544C287.667 61.76 285.107 62.784 281.971 63.616C281.779 63.104 281.491 62.528 281.107 61.888C280.755 61.248 280.355 60.608 279.907 59.968C279.459 59.36 279.027 58.864 278.611 58.48C281.363 57.872 283.555 57.136 285.187 56.272C286.851 55.408 288.099 54.432 288.931 53.344C289.795 52.224 290.403 50.976 290.755 49.6C291.139 48.192 291.411 46.672 291.571 45.04ZM303.955 44.08H309.763V55.792C309.763 56.56 309.875 57.056 310.099 57.28C310.355 57.472 310.915 57.568 311.779 57.568C311.971 57.568 312.275 57.568 312.691 57.568C313.107 57.568 313.571 57.568 314.083 57.568C314.595 57.568 315.075 57.568 315.523 57.568C315.971 57.568 316.323 57.568 316.579 57.568C317.091 57.568 317.475 57.44 317.731 57.184C318.019 56.928 318.211 56.384 318.307 55.552C318.435 54.688 318.531 53.424 318.595 51.76C319.011 52.048 319.523 52.336 320.131 52.624C320.739 52.912 321.363 53.168 322.003 53.392C322.675 53.616 323.267 53.808 323.779 53.968C323.587 56.272 323.251 58.064 322.771 59.344C322.291 60.656 321.603 61.552 320.707 62.032C319.843 62.544 318.643 62.8 317.107 62.8C316.819 62.8 316.387 62.8 315.811 62.8C315.267 62.8 314.659 62.8 313.987 62.8C313.347 62.8 312.739 62.8 312.163 62.8C311.619 62.8 311.203 62.8 310.915 62.8C309.059 62.8 307.619 62.592 306.595 62.176C305.603 61.76 304.915 61.04 304.531 60.016C304.147 58.992 303.955 57.616 303.955 55.888V44.08ZM298.243 18.448H304.387V27.184H298.243V18.448ZM280.819 23.056H322.051V34.48H315.907V28.528H286.675V34.48H280.819V23.056Z" fill="url(#paint13_linear_134_13)"/>
<path d="M349.267 23.872C348.275 25.28 347.091 26.736 345.715 28.24C344.339 29.712 342.819 31.184 341.155 32.656C339.491 34.096 337.715 35.472 335.827 36.784C333.971 38.096 332.051 39.296 330.067 40.384C329.715 39.712 329.171 38.928 328.435 38.032C327.731 37.104 327.059 36.352 326.419 35.776C329.203 34.336 331.859 32.64 334.387 30.688C336.915 28.704 339.187 26.624 341.203 24.448C343.219 22.272 344.819 20.208 346.003 18.256H352.003C353.283 20.08 354.723 21.84 356.323 23.536C357.923 25.232 359.603 26.816 361.363 28.288C363.155 29.728 364.995 31.04 366.883 32.224C368.803 33.376 370.723 34.368 372.643 35.2C371.907 35.936 371.219 36.752 370.579 37.648C369.939 38.544 369.347 39.44 368.803 40.336C366.979 39.312 365.123 38.16 363.235 36.88C361.347 35.568 359.539 34.192 357.811 32.752C356.083 31.28 354.483 29.792 353.011 28.288C351.539 26.784 350.291 25.312 349.267 23.872ZM332.995 46.432H365.827V51.424H332.995V46.432ZM335.443 35.776H363.619V40.864H335.443V35.776ZM329.107 57.232H370.147V62.368H329.107V57.232ZM346.291 38.032H352.339V60.064H346.291V38.032Z" fill="url(#paint14_linear_134_13)"/>
<defs>
<linearGradient id="paint0_linear_134_13" x1="0" y1="31.808" x2="372.643" y2="31.808" gradientUnits="userSpaceOnUse">
<stop stop-color="white"/>
<stop offset="1" stop-color="#CCCCCC" stop-opacity="0.8"/>
</linearGradient>
<linearGradient id="paint1_linear_134_13" x1="0" y1="31.808" x2="372.643" y2="31.808" gradientUnits="userSpaceOnUse">
<stop stop-color="white"/>
<stop offset="1" stop-color="#CCCCCC" stop-opacity="0.8"/>
</linearGradient>
<linearGradient id="paint2_linear_134_13" x1="0" y1="31.808" x2="372.643" y2="31.808" gradientUnits="userSpaceOnUse">
<stop stop-color="white"/>
<stop offset="1" stop-color="#CCCCCC" stop-opacity="0.8"/>
</linearGradient>
<linearGradient id="paint3_linear_134_13" x1="0" y1="31.808" x2="372.643" y2="31.808" gradientUnits="userSpaceOnUse">
<stop stop-color="white"/>
<stop offset="1" stop-color="#CCCCCC" stop-opacity="0.8"/>
</linearGradient>
<linearGradient id="paint4_linear_134_13" x1="0" y1="31.808" x2="372.643" y2="31.808" gradientUnits="userSpaceOnUse">
<stop stop-color="white"/>
<stop offset="1" stop-color="#CCCCCC" stop-opacity="0.8"/>
</linearGradient>
<linearGradient id="paint5_linear_134_13" x1="0" y1="31.808" x2="372.643" y2="31.808" gradientUnits="userSpaceOnUse">
<stop stop-color="white"/>
<stop offset="1" stop-color="#CCCCCC" stop-opacity="0.8"/>
</linearGradient>
<linearGradient id="paint6_linear_134_13" x1="0" y1="31.808" x2="372.643" y2="31.808" gradientUnits="userSpaceOnUse">
<stop stop-color="white"/>
<stop offset="1" stop-color="#CCCCCC" stop-opacity="0.8"/>
</linearGradient>
<linearGradient id="paint7_linear_134_13" x1="0" y1="31.808" x2="372.643" y2="31.808" gradientUnits="userSpaceOnUse">
<stop stop-color="white"/>
<stop offset="1" stop-color="#CCCCCC" stop-opacity="0.8"/>
</linearGradient>
<linearGradient id="paint8_linear_134_13" x1="0" y1="31.808" x2="372.643" y2="31.808" gradientUnits="userSpaceOnUse">
<stop stop-color="white"/>
<stop offset="1" stop-color="#CCCCCC" stop-opacity="0.8"/>
</linearGradient>
<linearGradient id="paint9_linear_134_13" x1="0" y1="31.808" x2="372.643" y2="31.808" gradientUnits="userSpaceOnUse">
<stop stop-color="white"/>
<stop offset="1" stop-color="#CCCCCC" stop-opacity="0.8"/>
</linearGradient>
<linearGradient id="paint10_linear_134_13" x1="0" y1="31.808" x2="372.643" y2="31.808" gradientUnits="userSpaceOnUse">
<stop stop-color="white"/>
<stop offset="1" stop-color="#CCCCCC" stop-opacity="0.8"/>
</linearGradient>
<linearGradient id="paint11_linear_134_13" x1="0" y1="31.808" x2="372.643" y2="31.808" gradientUnits="userSpaceOnUse">
<stop stop-color="white"/>
<stop offset="1" stop-color="#CCCCCC" stop-opacity="0.8"/>
</linearGradient>
<linearGradient id="paint12_linear_134_13" x1="0" y1="31.808" x2="372.643" y2="31.808" gradientUnits="userSpaceOnUse">
<stop stop-color="white"/>
<stop offset="1" stop-color="#CCCCCC" stop-opacity="0.8"/>
</linearGradient>
<linearGradient id="paint13_linear_134_13" x1="0" y1="31.808" x2="372.643" y2="31.808" gradientUnits="userSpaceOnUse">
<stop stop-color="white"/>
<stop offset="1" stop-color="#CCCCCC" stop-opacity="0.8"/>
</linearGradient>
<linearGradient id="paint14_linear_134_13" x1="0" y1="31.808" x2="372.643" y2="31.808" gradientUnits="userSpaceOnUse">
<stop stop-color="white"/>
<stop offset="1" stop-color="#CCCCCC" stop-opacity="0.8"/>
</linearGradient>
</defs>
</svg>
